<!-- <svg stroke="currentColor" fill="currentColor" stroke-width="0" role="img" viewBox="0 0 24 24"
    height="1em" width="1em" xmlns="http://www.w3.org/2000/svg">
    <title></title>
    <path
        d="m0 .97 4.111 6.453v4.09h2.638v-4.09L11.053.969H8.214L5.58 5.125 2.965.969Zm12.093.024-4.47
10.544h2.114l.97-2.345h4.775l.804 2.345h2.26L14.255.994Zm1.133 2.225 1.463 3.87h-3.096zm3.06
9.475v10.29H24v-2.199h-5.454v-8.091zm-12.175.002v10.335h2.217v-7.129l2.32
4.792h1.746l2.4-4.96v7.295h2.127V12.696h-2.904L9.44 17.37l-2.455-4.674Z"></path>
</svg> -->

<svg xmlns="http://www.w3.org/2000/svg" width="67" height="57" viewBox="0 0 67 57"
    fill="currentColor">
    <path
        d="M27.1872 51.3759C26.1036 50.3581 26.261 48.6045 27.59 46.8837C28.5748 45.6097 32.6898 41.4361 35.659 38.6976L36.8598 37.5919L34.9487 33.4952C32.807 28.9006 32.818 28.8127 35.6443 28.4978L37.2003 28.3258L38.9393 30.9544C39.8948 32.4005 40.8174 33.5831 40.9822 33.5831C41.1469 33.5831 42.864 32.2065 44.7933 30.5261C48.1432 27.6045 48.3519 27.4764 49.4868 27.6302C50.1715 27.7253 50.7792 27.6668 50.922 27.4947C51.2588 27.092 52.2253 27.6887 52.2253 28.3001C52.2253 28.5528 51.7421 29.1898 51.1563 29.717C48.751 31.877 43.6218 36.9879 43.6218 37.2222C43.6218 37.3613 44.6542 39.1442 45.921 41.1871L48.059 44.6432C48.1542 44.7969 48.1359 44.9946 48.0151 45.1264L47.5062 45.5182C47.1218 45.9429 46.8619 46.276 46.8106 46.6934C46.9021 46.9496 46.5177 47.0741 46.1699 47.2352C45.2876 47.6453 44.6359 47.1437 41.9414 43.9805C40.7076 42.5307 39.5763 41.3409 39.4262 41.3372C39.0931 41.3299 35.4064 45.3607 32.5544 48.8497C30.0392 51.925 27.8243 51.9873 27.1836 51.3832L27.1872 51.3759Z" />
    <path
        d="M24.1959 27.458C24.1813 27.4361 24.163 27.4141 24.152 27.3958C18.5359 19.0119 14.4648 17.5365 14.6112 17.445C16.7457 16.0721 20.7509 17.4194 23.2258 19.6197C23.255 19.6453 23.2843 19.6783 23.3173 19.7076C23.9104 20.2128 24.0458 20.3958 24.7561 21.1866C24.8842 21.1866 27.6227 16.6359 27.641 16.6066C33.1546 7.91157 38.9208 4.23585 42.267 4.24317C43.8632 4.24317 44.1012 4.79966 44.1012 4.79966C38.6791 7.62967 34.0918 12.6746 29.3544 21.9664C28.0327 24.628 25.8068 28.9225 25.6457 29.2154C25.4041 29.6547 25.3638 28.9994 24.1996 27.458H24.1959Z" />
    <path
        d="M5.84307 27.9084C7.34411 27.5386 8.49735 27.0151 9.31377 26.3341C10.1265 25.6531 10.683 24.8404 10.9869 23.8958C11.2908 22.9513 11.4409 21.9005 11.4409 20.7473V11.8802C11.4409 10.1522 11.6459 8.728 12.0523 7.61137C12.4586 6.49475 13.1542 5.671 14.1354 5.14015C15.1166 4.60929 16.4675 4.34203 18.1809 4.34203V0C16.0099 0 14.183 0.23797 12.7039 0.710248C11.2249 1.18253 10.046 1.90742 9.15635 2.88126C8.26671 3.85511 7.62968 5.08889 7.23794 6.58261C6.84621 8.07633 6.65217 9.84097 6.65217 11.8802V18.9753C6.65217 21.399 6.16159 23.127 5.17676 24.1631C4.19559 25.1992 2.46756 25.7154 0 25.7154V31.0349C2.46756 31.0349 4.19193 31.5511 5.17676 32.5872C6.15793 33.6233 6.65217 35.3513 6.65217 37.775V44.8665C6.65217 46.9057 6.84621 48.6703 7.23794 50.164C7.62968 51.6578 8.26671 52.8915 9.15635 53.8654C10.046 54.8392 11.2249 55.5641 12.7039 56.0364C14.183 56.5087 16.0062 56.7466 18.1809 56.7466V52.401C16.4675 52.401 15.1166 52.13 14.1354 51.5919C13.1542 51.0537 12.4586 50.2299 12.0523 49.1206C11.6459 48.0113 11.4409 46.5945 11.4409 44.8628V35.9957C11.4409 34.8424 11.2908 33.7954 10.9869 32.8472C10.683 31.9026 10.1265 31.0898 9.31377 30.4089C8.50101 29.7279 7.34411 29.2044 5.84307 28.8346C5.6527 28.787 5.4367 28.7541 5.23167 28.7138V28.0292C5.4367 27.9889 5.6527 27.9523 5.84307 27.9084Z" />
    <path
        d="M60.4516 27.9084C58.9505 27.5386 57.7973 27.0151 56.9809 26.3341C56.1681 25.6531 55.6116 24.8404 55.3078 23.8958C55.0039 22.9513 54.8538 21.9005 54.8538 20.7473V11.8802C54.8538 10.1522 54.6488 8.728 54.2424 7.61137C53.836 6.49475 53.1404 5.671 52.1593 5.14015C51.1781 4.60929 49.8272 4.34203 48.1138 4.34203V0C50.2848 0 52.1117 0.23797 53.5907 0.710248C55.0698 1.18253 56.2487 1.90742 57.1383 2.88126C58.0243 3.85511 58.665 5.08889 59.0567 6.58261C59.4485 8.07633 59.6425 9.84097 59.6425 11.8802V18.9753C59.6425 21.399 60.1331 23.127 61.1179 24.1631C62.0991 25.1992 63.8271 25.7154 66.2947 25.7154V28.2855V28.4612V31.0313C63.8271 31.0313 62.1027 31.5475 61.1179 32.5836C60.1367 33.6196 59.6425 35.3477 59.6425 37.7713V44.8628C59.6425 46.902 59.4485 48.6667 59.0567 50.1604C58.665 51.6541 58.028 52.8879 57.1383 53.8617C56.2523 54.8356 55.0698 55.5605 53.5907 56.0327C52.1117 56.505 50.2884 56.743 48.1138 56.743V52.3973C49.8272 52.3973 51.1781 52.1264 52.1593 51.5882C53.1404 51.05 53.836 50.2263 54.2424 49.117C54.6488 48.0077 54.8538 46.5908 54.8538 44.8591V35.992C54.8538 34.8388 55.0039 33.7917 55.3078 32.8435C55.6116 31.8989 56.1681 31.0862 56.9809 30.4052C57.7936 29.7243 58.9505 29.2007 60.4516 28.831C60.642 28.7834 60.858 28.7504 61.063 28.7101V28.0255C60.858 27.9852 60.642 27.9486 60.4516 27.9047V27.9084Z" />


</svg>